<svg height="512pt" viewBox="0 -50 512.00041 512" width="512pt" xmlns="http://www.w3.org/2000/svg"><path d="m495.824219 313.789062 9.539062-36.503906c14.570313-55.605468 5.738281-112.527344-32.328125-154.058594-2.839844-3.09375-7.648437-3.308593-10.753906-.46875-3.09375 2.84375-3.308594 7.652344-.464844 10.757813 34.941406 38.121094 41.859375 90.09375 28.824219 139.925781l-9.445313 36.121094h-383.355468l6.910156-32.621094c23.597656-111.4375 142.996094-201.324218 260.910156-189.015625 28.195313 2.945313 53.671875 12.015625 74.554688 26.664063 3.449218 2.417968 8.1875 1.574218 10.601562-1.867188 2.414063-3.4375 1.582032-8.175781-1.855468-10.589844-22.527344-15.808593-49.75-25.703124-79.742188-29.121093l4.832031-20.25h4.585938c16.71875 0 32.292969-14.53125 32.292969-30.613281 0-12.632813-10.011719-22.148438-23.285157-22.148438h-53.265625c-16.769531 0-32.132812 14.433594-32.132812 30.449219 0 12.722656 10.042968 22.3125 23.367187 22.3125h1.003907l-4.667969 19.855469c-49.332031 4.523437-98.4375 24.765624-140.242188 58.136718-47.777343 38.140625-80.386719 88.933594-91.84375 143.03125l-8.125 38.367188c-20.789062 8.25-32.847656 35.363281-18.984375 52.421875 5.144532 6.332031 12.824219 9.820312 21.632813 9.820312h40.878906c.78125 8.148438 3.765625 15.636719 8.785156 21.875 22.921875 28.5 72.410157 14.585938 89.917969-21.875h101.441406c.628906 8.148438 3.449219 15.636719 8.359375 21.894531 21.9375 27.90625 71.890625 15.359376 90.433594-21.894531h43.464844c28.347656 0 50.03125-34.550781 34.375-54.910156-1.75-2.273437-3.851563-4.175781-6.21875-5.695313zm-141.976563-241.964843c-5.492187-.210938-11.804687-.210938-16.050781-.109375l4.453125-18.953125h16.144531zm-36.382812-41.375c0-7.519531 8.625-15.230469 16.914062-15.230469h53.265625c4.972657 0 8.066407 2.660156 8.066407 6.929688 0 7.460937-8.691407 15.394531-17.074219 15.394531-18.804688 0-35.597657 0-48.449219 0-1.390625-.300781-12.722656 1.898437-12.722656-7.09375zm-191.257813 328.726562h-41.820312c-4.140625 0-7.621094-1.492187-9.820313-4.191406-7.882812-9.738281 3.832032-30.203125 20.363282-30.203125h52.515624c-11.71875 9.886719-18.898437 22.722656-21.238281 34.394531zm41.359375 37.054688c-9.042968 0-16.734375-3.378907-21.664062-9.496094-17.359375-21.542969 7.417968-61.953125 41.070312-61.953125 9.214844 0 17.007813 3.410156 21.9375 9.597656 17.027344 21.394532-8.09375 61.851563-41.34375 61.851563zm159.109375-37.054688h-97.816406c2.234375-13.144531-.53125-24.230469-8.140625-34.394531h127.792969c-12.238281 10.207031-19.925781 24.195312-21.835938 34.394531zm79.667969 15.21875c-26.421875 36.289063-76.722656 24.515625-63.867188-15.21875 6.300782-19.238281 26.289063-34.394531 46.074219-34.394531 26.4375 0 34.566407 26.652344 17.792969 49.613281zm61.324219-15.21875h-38.25c2.464843-12.875-.089844-24.949219-7.355469-34.292969-.03125-.03125-.050781-.070312-.082031-.101562h58.613281c4.082031 0 7.410156 1.417969 9.386719 3.988281 7.335937 9.496094-5.769531 30.40625-22.3125 30.40625zm0 0"/><path d="m155.855469 358.851562c-2.546875 14.019532 6.835937 23.171876 18.292969 23.171876 18.582031 0 32.199218-22.226563 21.085937-36.191407-10.996094-13.789062-35.289063-5.386719-39.378906 13.019531zm27.882812.324219c-1.765625 6.441407-10.160156 9.441407-12.53125 6.492188-2.589843-3.246094 2.65625-11.464844 9.171875-11.464844.945313 0 2.222656.203125 2.972656 1.136719.8125 1.003906.753907 2.824218.386719 3.835937zm0 0"/><path d="m381.222656 338.984375c-11.199218 0-22.109375 8.65625-24.835937 19.695313-5.117188 20.5 19.207031 31.800781 35.640625 15.714843 14.253906-13.824219 7.648437-35.410156-10.804688-35.410156zm2.984375 20.191406c-2.136719 6.574219-10.558593 9.296875-12.683593 6.59375-1.292969-1.648437-.191407-4.742187 1.125-6.59375 4.355468-6.1875 14.0625-7.089843 11.558593 0zm0 0"/><path d="m31.960938 191.269531c0 4.203125 3.40625 7.609375 7.609374 7.609375h63.917969c4.203125 0 7.609375-3.40625 7.609375-7.609375s-3.40625-7.609375-7.609375-7.609375h-63.917969c-4.203124 0-7.609374 3.40625-7.609374 7.609375zm0 0"/><path d="m58.015625 220.851562c-4.199219 0-7.609375 3.398438-7.609375 7.609376 0 4.203124 3.410156 7.609374 7.609375 7.609374h30.4375c4.203125 0 7.609375-3.40625 7.609375-7.609374 0-4.210938-3.40625-7.609376-7.609375-7.609376zm0 0"/><path d="m27.578125 220.851562h-19.96875c-4.199219 0-7.609375 3.398438-7.609375 7.609376 0 4.203124 3.410156 7.609374 7.609375 7.609374h19.96875c4.199219 0 7.609375-3.40625 7.609375-7.609374 0-4.210938-3.410156-7.609376-7.609375-7.609376zm0 0"/><path d="m83.382812 265.320312c0-4.203124-3.410156-7.609374-7.609374-7.609374h-32.8125c-4.203126 0-7.609376 3.40625-7.609376 7.609374 0 4.203126 3.40625 7.609376 7.609376 7.609376h32.8125c4.199218 0 7.609374-3.40625 7.609374-7.609376zm0 0"/><path d="m7.609375 161.546875h81.171875c4.207031 0 7.609375-3.40625 7.609375-7.609375 0-4.199219-3.402344-7.609375-7.609375-7.609375h-81.171875c-4.199219 0-7.609375 3.410156-7.609375 7.609375 0 4.203125 3.410156 7.609375 7.609375 7.609375zm0 0"/><path d="m119.21875 161.546875h13.453125c4.199219 0 7.609375-3.40625 7.609375-7.609375 0-4.199219-3.410156-7.609375-7.609375-7.609375h-13.453125c-4.203125 0-7.609375 3.410156-7.609375 7.609375 0 4.203125 3.40625 7.609375 7.609375 7.609375zm0 0"/></svg>