<svg height="495pt" viewBox="0 -87 495.99223 495" width="495pt" xmlns="http://www.w3.org/2000/svg"><path d="m152.1875 130.015625c2.324219-1.742187 3.523438-4.605469 3.128906-7.484375-.394531-2.878906-2.316406-5.320312-5.023437-6.371094-2.707031-1.054687-5.773438-.558594-8.011719 1.296875-35.679688 28.300781-59.671875 68.761719-67.382812 113.648438-.765626 4.347656 2.136718 8.496093 6.488281 9.261719.460937.085937.929687.128906 1.398437.128906 3.875-.007813 7.191406-2.792969 7.863282-6.609375 7.035156-41.015625 28.941406-77.996094 61.539062-103.871094zm0 0"/><path d="m494.488281 259.816406c-1.503906-2.085937-3.921875-3.324218-6.496093-3.320312h-32.191407c-3.808593-107.046875-82.886719-194.398438-183.808593-206.519532v-41.480468c0-4.417969-3.578126-8-8-8h-32c-4.417969 0-8 3.582031-8 8v41.480468c-100.917969 12.121094-180 99.472657-183.804688 206.519532h-32.195312c-2.570313.003906-4.980469 1.238281-6.484376 3.324218-1.4999995 2.085938-1.910156 4.765626-1.097656 7.203126l16 48c1.085938 3.265624 4.140625 5.46875 7.582032 5.472656h448c3.445312-.003906 6.5-2.207032 7.585937-5.472656l16-48c.816406-2.4375.410156-5.117188-1.089844-7.207032zm-254.496093-211.320312v-32h16v32zm8 16c103.296874 0 187.808593 85.417968 191.851562 192h-383.699219c4.042969-106.582032 88.554688-192 191.847657-192zm218.234374 240h-436.464843l-10.664063-32h457.792969zm0 0"/><path d="m175.992188 224.496094h-64c-4.417969 0-8 3.582031-8 8 0 4.417968 3.582031 8 8 8h64c4.421874 0 8-3.582032 8-8 0-4.417969-3.578126-8-8-8zm0 0"/><path d="m207.992188 224.496094h-8c-4.417969 0-8 3.582031-8 8 0 4.417968 3.582031 8 8 8h8c4.421874 0 8-3.582032 8-8 0-4.417969-3.578126-8-8-8zm0 0"/><path d="m391.992188 280.496094c-4.417969 0-8 3.582031-8 8 0 4.417968 3.582031 8 8 8h56c4.421874 0 8-3.582032 8-8 0-4.417969-3.578126-8-8-8zm0 0"/><path d="m367.992188 280.496094h-8c-4.417969 0-8 3.582031-8 8 0 4.417968 3.582031 8 8 8h8c4.421874 0 8-3.582032 8-8 0-4.417969-3.578126-8-8-8zm0 0"/></svg>